<mxfile host="app.diagrams.net" agent="Mozilla/5.0 (Windows NT 10.0; Win64; x64) AppleWebKit/537.36 (KHTML, like Gecko) Chrome/131.0.0.0 Safari/537.36" version="24.8.9">
  <diagram name="Page-1" id="TuQDyOTI59V53vPFfJfs">
    <mxGraphModel dx="1032" dy="501" grid="1" gridSize="10" guides="1" tooltips="1" connect="1" arrows="1" fold="1" page="1" pageScale="1" pageWidth="827" pageHeight="1169" math="0" shadow="0">
      <root>
        <mxCell id="0" />
        <mxCell id="1" parent="0" />
        <mxCell id="rcb3OCozfbT_WDniuUML-1" value="" style="ellipse;whiteSpace=wrap;html=1;aspect=fixed;fillColor=#fff2cc;strokeColor=#000000;gradientColor=#ffd966;strokeWidth=3;" vertex="1" parent="1">
          <mxGeometry x="200" y="290" width="250" height="250" as="geometry" />
        </mxCell>
        <mxCell id="rcb3OCozfbT_WDniuUML-2" value="" style="ellipse;whiteSpace=wrap;html=1;aspect=fixed;fillColor=#ffcccc;strokeColor=#000000;fillStyle=solid;opacity=50;strokeWidth=3;" vertex="1" parent="1">
          <mxGeometry x="360" y="280" width="250" height="250" as="geometry" />
        </mxCell>
        <mxCell id="rcb3OCozfbT_WDniuUML-3" value="" style="ellipse;whiteSpace=wrap;html=1;aspect=fixed;fillColor=#cdeb8b;strokeColor=#000000;shadow=0;opacity=50;strokeWidth=3;" vertex="1" parent="1">
          <mxGeometry x="270" y="150" width="250" height="250" as="geometry" />
        </mxCell>
        <mxCell id="rcb3OCozfbT_WDniuUML-7" value="&lt;font style=&quot;font-size: 14px;&quot;&gt;&lt;b&gt;135&lt;/b&gt;&lt;/font&gt;" style="rounded=0;whiteSpace=wrap;html=1;fillColor=none;strokeColor=none;" vertex="1" parent="1">
          <mxGeometry x="280" y="450" width="50" height="30" as="geometry" />
        </mxCell>
        <mxCell id="rcb3OCozfbT_WDniuUML-8" value="&lt;font style=&quot;font-size: 14px;&quot;&gt;&lt;b&gt;84&lt;/b&gt;&lt;/font&gt;" style="rounded=0;whiteSpace=wrap;html=1;fillColor=none;strokeColor=none;" vertex="1" parent="1">
          <mxGeometry x="370" y="240" width="50" height="30" as="geometry" />
        </mxCell>
        <mxCell id="rcb3OCozfbT_WDniuUML-9" value="&lt;font style=&quot;font-size: 14px;&quot;&gt;&lt;b&gt;28&lt;/b&gt;&lt;/font&gt;" style="rounded=0;whiteSpace=wrap;html=1;fillColor=none;strokeColor=none;" vertex="1" parent="1">
          <mxGeometry x="470" y="460" width="50" height="30" as="geometry" />
        </mxCell>
        <mxCell id="rcb3OCozfbT_WDniuUML-10" value="&lt;font style=&quot;font-size: 14px;&quot;&gt;&lt;b&gt;28&lt;/b&gt;&lt;/font&gt;" style="rounded=0;whiteSpace=wrap;html=1;fillColor=none;strokeColor=none;" vertex="1" parent="1">
          <mxGeometry x="380" y="430" width="50" height="30" as="geometry" />
        </mxCell>
        <mxCell id="rcb3OCozfbT_WDniuUML-11" value="&lt;span style=&quot;font-size: 14px;&quot;&gt;&lt;b&gt;13&lt;/b&gt;&lt;/span&gt;" style="rounded=0;whiteSpace=wrap;html=1;fillColor=none;strokeColor=none;" vertex="1" parent="1">
          <mxGeometry x="440" y="310" width="50" height="30" as="geometry" />
        </mxCell>
        <mxCell id="rcb3OCozfbT_WDniuUML-12" value="&lt;font style=&quot;font-size: 14px;&quot;&gt;&lt;b&gt;84&lt;/b&gt;&lt;/font&gt;" style="rounded=0;whiteSpace=wrap;html=1;fillColor=none;strokeColor=none;" vertex="1" parent="1">
          <mxGeometry x="310" y="310" width="50" height="30" as="geometry" />
        </mxCell>
        <mxCell id="rcb3OCozfbT_WDniuUML-13" value="&lt;font style=&quot;font-size: 14px;&quot;&gt;&lt;b&gt;13&lt;/b&gt;&lt;/font&gt;" style="rounded=0;whiteSpace=wrap;html=1;fillColor=none;strokeColor=none;" vertex="1" parent="1">
          <mxGeometry x="380" y="360" width="50" height="30" as="geometry" />
        </mxCell>
        <mxCell id="rcb3OCozfbT_WDniuUML-14" value="&lt;font style=&quot;font-size: 14px;&quot;&gt;&lt;b&gt;LULCC and WQ&lt;/b&gt;&lt;/font&gt;" style="rounded=0;whiteSpace=wrap;html=1;fillColor=none;strokeColor=none;" vertex="1" parent="1">
          <mxGeometry x="350" y="180" width="70" height="40" as="geometry" />
        </mxCell>
        <mxCell id="rcb3OCozfbT_WDniuUML-15" value="&lt;font style=&quot;font-size: 14px;&quot;&gt;&lt;b&gt;LSC and WQ&lt;/b&gt;&lt;/font&gt;" style="rounded=0;whiteSpace=wrap;html=1;fillColor=none;strokeColor=none;" vertex="1" parent="1">
          <mxGeometry x="510" y="385" width="70" height="40" as="geometry" />
        </mxCell>
        <mxCell id="rcb3OCozfbT_WDniuUML-16" value="&lt;font style=&quot;font-size: 14px;&quot;&gt;&lt;b&gt;LULC and WQ&lt;/b&gt;&lt;/font&gt;" style="rounded=0;whiteSpace=wrap;html=1;fillColor=none;strokeColor=none;" vertex="1" parent="1">
          <mxGeometry x="230" y="385" width="70" height="40" as="geometry" />
        </mxCell>
      </root>
    </mxGraphModel>
  </diagram>
</mxfile>
